<?xml version="1.0" standalone="no"?>
<!DOCTYPE svg PUBLIC "-//W3C//DTD SVG 20010904//EN"
 "http://www.w3.org/TR/2001/REC-SVG-20010904/DTD/svg10.dtd">
<svg version="1.0" xmlns="http://www.w3.org/2000/svg"
 width="360.000000pt" height="360.000000pt" viewBox="0 0 360.000000 360.000000"
 preserveAspectRatio="xMidYMid meet">
<metadata>
Created by potrace 1.11, written by Peter Selinger 2001-2013
</metadata>
<g transform="translate(0.000000,360.000000) scale(0.100000,-0.100000)"
fill="#000000" stroke="none">
<path d="M1697 2703 c-126 -66 -184 -111 -174 -136 10 -25 47 -21 121 14 164
77 190 54 146 -129 -23 -97 -43 -139 -77 -167 -15 -13 -24 -29 -22 -40 6 -27
87 -87 113 -83 39 6 101 150 146 339 24 103 18 129 -35 157 -21 10 -46 35 -58
57 -13 22 -29 41 -37 42 -8 2 -64 -23 -123 -54z"/>
<path d="M2475 2711 c-44 -27 -124 -116 -183 -202 -221 -329 -391 -855 -392
-1210 0 -121 41 -209 128 -269 26 -18 64 -49 84 -68 70 -66 176 -52 321 45 90
60 289 251 313 301 17 35 17 41 0 121 -27 134 -49 155 -71 68 -41 -160 -391
-463 -512 -444 -46 8 -88 48 -109 104 -25 65 -14 300 20 448 117 498 360 955
508 955 13 0 41 -12 62 -26 l38 -26 -7 -71 c-13 -126 -64 -300 -106 -358 -17
-22 -6 -45 33 -69 44 -27 72 -25 96 5 29 36 87 222 118 373 30 152 28 168 -37
227 -44 40 -68 44 -76 15 -3 -11 -8 -20 -11 -20 -3 0 -33 27 -68 60 -69 66
-96 74 -149 41z"/>
<path d="M1381 2514 c-39 -40 -79 -94 -97 -129 -26 -55 -29 -69 -29 -165 0
-125 21 -206 127 -490 111 -295 148 -422 148 -505 0 -64 -22 -136 -50 -169
-26 -28 -33 -31 -85 -30 -81 2 -165 47 -265 141 -140 131 -230 282 -230 383 0
73 -20 76 -81 12 -60 -62 -62 -88 -19 -201 45 -116 99 -193 220 -312 127 -126
219 -180 321 -187 59 -4 59 -4 102 40 155 164 195 226 218 336 23 112 1 200
-134 543 -156 393 -174 557 -77 700 33 50 37 71 14 89 -13 11 -25 3 -83 -56z"/>
</g>
</svg>
