<?xml version="1.0" standalone="no"?>
<!DOCTYPE svg PUBLIC "-//W3C//DTD SVG 20010904//EN"
 "http://www.w3.org/TR/2001/REC-SVG-20010904/DTD/svg10.dtd">
<svg version="1.0" xmlns="http://www.w3.org/2000/svg"
 width="360.000000pt" height="360.000000pt" viewBox="0 0 360.000000 360.000000"
 preserveAspectRatio="xMidYMid meet">
<metadata>
Created by potrace 1.11, written by Peter Selinger 2001-2013
</metadata>
<g transform="translate(0.000000,360.000000) scale(0.100000,-0.100000)"
fill="#000000" stroke="none">
<path d="M1693 3415 c0 -8 4 -12 9 -9 5 3 6 10 3 15 -9 13 -12 11 -12 -6z"/>
<path d="M1855 3413 c6 -22 -7 -26 -32 -10 -6 4 -14 3 -18 -3 -4 -6 -11 -8
-16 -4 -5 3 -6 10 -3 16 4 7 2 8 -5 4 -6 -4 -9 -11 -7 -15 6 -9 -25 -8 -41 2
-6 4 -14 3 -18 -3 -6 -10 -40 -9 -51 3 -3 3 -17 -1 -30 -10 -14 -9 -27 -13
-30 -10 -3 3 -19 1 -35 -3 -19 -6 -29 -5 -29 2 0 7 -4 7 -13 -1 -8 -6 -17 -8
-20 -4 -4 3 -7 1 -7 -6 0 -9 -5 -9 -20 -1 -11 6 -20 7 -19 3 4 -22 -3 -25 -16
-7 -13 16 -14 16 -9 2 4 -11 1 -18 -6 -18 -7 0 -19 8 -26 18 -12 15 -12 15 -7
-7 4 -16 3 -22 -5 -17 -6 3 -14 2 -17 -4 -5 -8 -11 -7 -21 1 -7 6 -11 16 -7
22 3 6 1 7 -6 3 -8 -6 -9 -12 -2 -20 15 -18 2 -27 -22 -15 -14 8 -18 8 -13 0
4 -6 2 -11 -4 -11 -6 0 -8 -6 -4 -12 4 -7 -2 -5 -13 5 -20 18 -21 18 -19 0 1
-13 -5 -17 -23 -15 -13 2 -21 0 -18 -6 4 -5 0 -9 -8 -9 -8 0 -12 5 -9 11 3 6
-1 4 -8 -4 -28 -31 -57 -41 -81 -29 -20 11 -21 11 -9 -4 11 -13 10 -16 -7 -22
-12 -3 -25 -3 -31 0 -6 4 -10 3 -9 -2 1 -4 1 -15 0 -23 -1 -13 -2 -13 -11 0
-8 12 -10 12 -10 1 0 -8 -3 -12 -6 -8 -4 3 -15 -4 -25 -16 -13 -15 -18 -18
-19 -8 0 11 -4 10 -13 -4 -9 -12 -19 -15 -28 -10 -11 7 -11 5 1 -10 8 -10 10
-16 3 -12 -16 10 -44 -3 -36 -17 4 -6 -1 -5 -10 2 -9 8 -22 12 -29 9 -8 -4 -7
-6 5 -6 9 -1 17 -5 17 -11 0 -10 -15 -14 -34 -11 -5 1 -5 -6 -2 -16 4 -9 4
-14 0 -10 -4 4 -20 -5 -36 -20 -15 -15 -28 -24 -28 -20 0 3 -14 -7 -31 -24
-16 -16 -34 -27 -39 -24 -6 4 -7 -2 -3 -12 6 -16 5 -16 -10 -4 -15 12 -17 12
-12 -1 7 -18 -25 -49 -53 -51 -11 0 -20 -6 -19 -12 1 -5 -4 -9 -11 -7 -11 2
-34 -39 -30 -56 4 -20 -15 -40 -35 -37 -15 3 -18 2 -9 -7 8 -8 8 -14 -1 -24
-7 -7 -18 -20 -25 -29 -8 -10 -22 -14 -35 -11 -12 3 -16 3 -9 0 6 -3 10 -10 7
-15 -4 -5 2 -6 12 -3 10 3 14 2 8 -3 -6 -4 -21 -25 -35 -45 -14 -21 -28 -38
-32 -38 -5 0 -8 -5 -8 -11 0 -5 5 -7 12 -3 7 4 8 3 4 -5 -4 -6 -12 -9 -17 -6
-5 4 -10 1 -10 -4 -1 -6 -2 -17 -3 -23 0 -7 -14 -13 -30 -13 -17 -1 -31 -7
-34 -15 -2 -11 -1 -12 5 -3 6 9 12 7 22 -9 11 -18 11 -20 -1 -15 -11 4 -14 -1
-10 -19 5 -26 -7 -31 -26 -12 -7 7 -12 9 -12 4 0 -4 6 -14 14 -22 11 -11 12
-19 3 -39 -13 -26 -30 -35 -21 -10 4 8 1 15 -7 15 -7 0 -10 -3 -6 -6 3 -4 0
-13 -8 -21 -17 -16 -20 -43 -5 -43 5 0 7 6 4 14 -3 8 -1 17 5 21 6 3 11 1 11
-5 0 -6 5 -8 11 -5 6 4 5 -2 -3 -14 -7 -12 -16 -21 -20 -21 -4 0 -5 -9 -3 -20
3 -14 -9 -34 -35 -60 -22 -22 -35 -40 -30 -40 6 0 10 -5 10 -11 0 -5 -5 -7
-12 -3 -6 4 -8 3 -5 -3 7 -12 -16 -36 -26 -28 -4 3 -5 2 -2 -2 3 -4 16 -8 28
-10 15 -2 18 0 9 5 -10 7 -10 11 3 22 9 7 14 19 11 27 -4 9 -1 11 6 7 7 -5 8
-3 3 6 -5 9 -4 11 3 6 8 -5 10 -2 6 8 -3 9 -2 16 4 16 12 0 10 -17 -6 -46 -6
-12 -8 -25 -4 -29 4 -5 2 -5 -4 -2 -8 4 -12 -3 -12 -21 -1 -29 -9 -85 -12 -89
-1 -2 -4 -12 -5 -23 -1 -11 -4 -22 -5 -25 -1 -3 -3 -15 -4 -27 0 -13 -5 -23
-11 -23 -5 0 -18 -5 -29 -11 -16 -10 -16 -12 -2 -17 9 -4 16 -14 16 -22 0 -9
4 -14 8 -11 4 2 8 -15 7 -38 0 -23 -5 -43 -11 -43 -6 0 -10 17 -9 39 1 22 -3
42 -9 45 -6 3 -8 3 -4 -2 4 -4 0 -14 -10 -22 -16 -12 -15 -13 3 -6 18 6 18 5
6 -10 -9 -11 -10 -17 -2 -17 6 0 11 -4 11 -10 0 -5 -8 -7 -17 -4 -15 5 -15 4
-4 -4 8 -6 15 -20 16 -31 1 -17 -3 -20 -19 -15 -15 4 -17 3 -7 -4 11 -8 11
-11 0 -16 -8 -3 -5 -4 7 -1 12 3 27 -1 34 -10 7 -8 9 -15 6 -15 -4 0 -2 -8 3
-18 6 -11 6 -24 1 -32 -5 -8 -5 -19 1 -26 6 -7 5 -15 -4 -22 -11 -9 -13 -5
-13 21 1 17 5 35 11 39 6 5 6 8 -2 8 -6 0 -10 9 -8 20 3 13 0 18 -7 14 -7 -5
-8 -2 -3 6 5 9 4 11 -4 6 -9 -6 -9 -11 0 -22 10 -13 8 -14 -16 -10 -15 3 -24
2 -20 -2 6 -7 10 -8 36 -11 5 0 8 -5 4 -11 -3 -5 -13 -7 -23 -3 -11 3 -9 -1 6
-11 21 -17 22 -36 1 -36 -6 0 -8 4 -5 8 3 5 -2 9 -10 9 -10 0 -6 -9 13 -27 26
-24 30 -25 48 -11 13 10 16 10 8 2 -9 -10 -9 -20 -2 -34 8 -14 8 -18 0 -13 -6
4 -15 -4 -21 -18 -13 -36 -21 -32 -16 8 3 25 -1 39 -12 48 -15 11 -15 11 -6
-2 6 -8 9 -29 7 -46 -3 -38 20 -65 40 -45 9 10 8 11 -8 6 -16 -6 -17 -5 -5 4
31 22 34 12 15 -46 -4 -13 -11 -20 -16 -17 -5 3 -9 1 -9 -5 0 -5 5 -13 10 -16
6 -3 10 -2 10 2 0 5 7 18 15 29 14 17 15 18 9 0 -4 -10 -1 -22 7 -28 11 -8 10
-9 -3 -4 -12 3 -18 0 -18 -9 0 -8 -3 -14 -7 -14 -29 5 -31 -4 -5 -26 34 -29
44 -31 36 -10 -4 8 -10 13 -14 10 -5 -3 -7 2 -6 10 2 16 15 21 17 8 1 -5 5
-16 10 -25 7 -12 4 -20 -8 -26 -15 -9 -14 -10 4 -16 21 -7 26 -33 10 -53 -12
-17 -30 -17 -24 0 2 6 10 11 16 9 6 -1 11 2 11 8 0 21 -26 8 -43 -22 -10 -18
-12 -27 -5 -20 24 20 43 -7 25 -35 -12 -20 4 -15 19 4 8 12 9 22 3 29 -6 8 -4
14 5 17 20 8 32 -11 17 -26 -18 -18 -13 -31 6 -16 16 13 17 12 4 -3 -7 -10
-18 -15 -25 -11 -7 4 -7 1 1 -7 10 -11 15 -11 29 1 13 10 16 10 10 1 -4 -7 -3
-18 2 -25 7 -8 6 -20 -2 -35 -12 -22 -13 -22 -27 -6 -12 16 -12 17 3 12 10 -4
19 -1 22 8 5 12 -27 34 -50 34 -9 0 -3 -39 7 -45 7 -5 4 -14 -7 -26 -16 -18
-16 -19 -1 -13 9 3 17 10 17 16 0 5 5 6 10 3 7 -4 7 -11 2 -18 -19 -26 -20
-43 -1 -44 10 -1 19 3 19 8 0 6 5 7 12 3 6 -4 8 -3 5 2 -3 6 -2 15 2 22 4 8
11 5 20 -9 8 -14 8 -19 1 -14 -7 4 -10 0 -8 -11 5 -28 24 -45 45 -38 13 5 12
2 -5 -11 -19 -14 -21 -20 -11 -31 10 -12 10 -14 0 -12 -8 2 -15 -5 -16 -15 -2
-9 1 -15 5 -12 5 3 11 1 15 -5 3 -5 -2 -10 -12 -11 -14 0 -15 -2 -3 -6 8 -3
18 -10 21 -16 4 -5 15 -4 29 3 18 10 20 14 9 21 -9 5 -16 3 -21 -9 -7 -18 -8
-18 -13 11 -2 11 -1 16 2 13 4 -3 13 0 21 7 13 10 14 9 7 -2 -6 -11 -4 -13 7
-8 17 6 19 -8 4 -32 -7 -11 -5 -13 5 -9 8 3 23 0 32 -7 16 -11 14 -13 -13 -11
-16 0 -30 5 -30 11 0 5 -7 2 -16 -7 -16 -16 -11 -43 7 -33 5 4 9 1 9 -4 0 -6
-6 -11 -14 -11 -8 0 -17 -4 -20 -8 -4 -6 38 -8 54 -2 3 1 8 2 12 1 4 0 5 6 1
15 -5 13 -7 13 -14 2 -6 -9 -8 -6 -7 9 2 23 28 20 28 -3 0 -8 5 -14 11 -14 6
0 8 -9 3 -22 -6 -21 -5 -22 11 -8 15 12 17 12 10 1 -6 -11 -4 -13 7 -9 9 4 15
0 15 -8 0 -8 -4 -14 -9 -14 -5 0 -7 -4 -3 -9 3 -5 -2 -16 -10 -25 -14 -13 -13
-15 4 -13 11 0 18 4 15 8 -2 4 1 11 7 15 8 4 9 3 5 -4 -7 -11 6 -17 28 -13 15
3 26 -22 21 -51 -4 -19 -1 -26 10 -24 18 3 32 16 17 16 -7 0 -12 4 -12 8 0 5
7 9 15 9 8 0 12 -4 9 -9 -3 -4 1 -8 8 -8 8 0 6 -5 -4 -11 -25 -14 -23 -22 10
-41 23 -14 31 -15 41 -5 10 9 11 9 6 -4 -6 -15 -57 -25 -52 -10 1 3 -8 16 -20
29 -13 12 -23 17 -23 10 0 -6 -6 -3 -14 8 -9 12 -11 21 -4 25 7 4 7 9 0 13
-12 7 -26 -25 -14 -33 5 -3 12 -15 16 -26 5 -13 10 -16 13 -7 3 6 9 9 14 6 6
-3 5 -11 -2 -20 -8 -10 -8 -14 0 -14 6 0 11 5 11 10 0 19 16 10 17 -9 1 -14
-3 -18 -15 -14 -9 3 0 -7 21 -21 20 -15 37 -31 37 -36 0 -6 5 -10 11 -10 5 0
7 5 4 10 -4 6 5 10 23 8 22 -2 28 -6 24 -20 -2 -10 -8 -15 -13 -12 -5 3 -6 11
-2 17 4 7 0 6 -10 -2 -9 -7 -16 -21 -16 -30 1 -13 2 -13 6 2 2 9 8 15 13 12 5
-3 6 -13 3 -22 -5 -13 -3 -13 14 3 11 10 17 24 14 29 -5 10 9 0 61 -41 21 -17
24 -23 13 -28 -8 -3 -17 -1 -20 4 -12 19 -23 10 -22 -18 1 -16 7 -29 14 -29 7
0 13 4 13 9 0 4 -5 8 -11 8 -5 0 -7 5 -3 11 4 8 9 8 17 0 6 -6 16 -11 22 -11
5 0 3 5 -5 10 -9 6 -10 10 -3 10 21 0 24 -18 6 -30 -17 -11 -17 -11 0 -6 11 3
20 0 23 -9 4 -9 19 -15 37 -15 34 0 28 15 -6 15 -13 1 -21 6 -19 14 1 7 -1 10
-6 7 -4 -2 -8 3 -8 13 0 10 6 18 13 18 7 0 10 -3 8 -7 -7 -11 13 -33 31 -36
10 -2 22 -10 27 -19 8 -15 10 -15 21 1 10 13 15 14 21 4 5 -8 4 -11 -2 -7 -6
4 -13 0 -16 -7 -6 -16 17 -41 31 -33 4 3 14 2 21 -2 10 -7 11 -13 1 -31 -7
-12 -7 -20 -2 -16 6 3 12 1 14 -6 3 -8 15 -2 33 17 20 21 24 24 17 9 -9 -17
-8 -24 2 -34 8 -6 13 -23 11 -38 -2 -15 -2 -21 1 -14 4 8 11 6 23 -9 15 -19
20 -20 40 -10 13 7 25 10 29 7 7 -8 -39 -42 -51 -38 -5 1 -6 -2 -2 -8 4 -6 17
-2 34 11 24 18 44 25 74 28 5 1 5 5 2 11 -3 6 1 7 9 4 9 -3 16 -10 16 -16 0
-5 4 -7 9 -4 15 10 31 -18 19 -34 -8 -13 -9 -12 -5 2 4 12 1 16 -14 13 -12 -3
-17 0 -13 7 5 7 2 8 -6 3 -9 -6 -11 -4 -5 4 4 8 -6 6 -26 -4 -55 -28 -54 -33
2 -11 12 5 15 1 15 -15 -1 -13 6 -23 17 -25 9 -1 15 2 11 7 -3 5 -10 7 -15 4
-5 -4 -9 1 -9 9 0 21 22 16 37 -9 11 -19 12 -19 22 7 6 15 8 36 5 45 -3 10 1
8 8 -5 8 -12 18 -19 23 -15 4 4 5 2 1 -5 -4 -7 -12 -9 -18 -6 -7 4 -8 2 -4 -5
4 -6 2 -19 -5 -27 -6 -8 -9 -17 -5 -21 3 -3 6 0 7 8 0 9 4 6 10 -6 9 -18 9
-18 5 4 -3 17 1 25 14 28 12 3 17 11 13 21 -4 15 -3 15 6 2 8 -11 7 -18 -4
-26 -13 -10 -13 -12 6 -17 17 -5 19 -9 10 -26 -8 -13 -8 -22 -1 -26 6 -4 10
-3 9 2 -4 25 2 35 14 25 10 -9 13 -3 14 24 0 18 -4 34 -9 34 -5 0 -7 -4 -4 -9
3 -5 -1 -12 -9 -15 -13 -4 -14 -2 -5 14 13 24 28 26 36 5 4 -8 10 -12 15 -9 5
3 9 0 9 -6 0 -6 5 -8 13 -4 8 5 8 2 -2 -9 -15 -18 -26 -23 -16 -7 3 6 1 10 -4
10 -6 0 -11 -6 -11 -14 0 -16 44 -16 58 -1 4 4 0 4 -8 0 -10 -6 -9 -1 3 13 17
18 62 28 52 11 -3 -3 8 -12 22 -18 23 -11 29 -10 41 6 13 16 14 16 9 1 -8 -22
8 -31 56 -34 30 -2 36 0 27 11 -8 9 -8 15 0 20 6 4 9 1 8 -7 -2 -7 3 -12 10
-10 8 1 11 -2 7 -8 -3 -5 -2 -10 3 -10 19 0 21 14 5 34 -18 21 -18 21 4 2 13
-10 20 -23 16 -29 -4 -6 0 -8 10 -4 9 3 19 1 23 -5 4 -7 9 -6 15 3 6 11 11 11
20 2 10 -10 15 -9 25 5 12 16 13 15 11 -3 -1 -18 -8 -21 -46 -20 -26 0 -52 4
-59 8 -8 5 -11 4 -10 -4 2 -6 -3 -14 -11 -17 -8 -2 -11 0 -7 6 3 6 1 14 -5 18
-7 4 -9 3 -6 -2 3 -6 -3 -11 -14 -11 -11 -1 -17 2 -14 8 10 15 -2 10 -16 -8
-10 -11 -10 -14 -1 -9 7 4 12 2 12 -5 0 -7 3 -9 7 -6 3 4 12 -1 20 -11 10 -13
12 -13 8 -2 -4 11 1 16 15 16 14 0 19 -5 15 -16 -4 -11 -2 -11 8 2 8 10 17 15
20 11 4 -3 2 -12 -4 -19 -7 -8 -7 -14 1 -19 6 -4 9 -1 8 7 -2 7 4 12 12 10 12
-3 13 -1 3 9 -17 17 -17 32 0 22 18 -11 36 -12 43 -2 3 5 10 7 15 3 6 -3 3
-11 -6 -18 -15 -10 -14 -12 4 -12 11 0 18 2 16 4 -2 3 2 11 10 19 8 8 15 19
15 26 0 6 -7 2 -16 -9 -15 -19 -15 -19 -6 1 5 11 7 27 5 35 -4 13 -3 13 5 1
13 -19 56 -26 46 -9 -4 7 2 5 13 -5 15 -13 22 -15 25 -6 2 7 13 13 24 13 11 1
26 6 34 10 12 7 12 6 3 -4 -6 -7 -9 -19 -6 -26 3 -8 0 -14 -6 -14 -6 0 -10 5
-8 11 1 6 -5 14 -13 16 -12 4 -12 3 -1 -5 9 -7 10 -12 2 -16 -6 -4 -11 -2 -11
4 0 6 -5 8 -12 3 -21 -12 -41 -13 -58 0 -8 6 -12 7 -8 3 4 -5 2 -16 -5 -24
-10 -13 -9 -14 2 -7 11 6 13 4 8 -9 -4 -10 -3 -15 3 -11 6 3 10 1 10 -4 0 -6
5 -11 12 -11 9 0 9 3 0 12 -21 21 -13 32 11 12 12 -10 16 -12 10 -4 -19 21
-16 35 4 19 11 -10 14 -10 9 -1 -4 6 -3 12 2 12 5 0 14 -10 21 -22 9 -19 10
-20 6 -3 -4 16 1 20 21 21 25 2 25 2 7 -20 -18 -21 -18 -21 3 -3 11 9 24 14
29 10 4 -5 1 3 -8 17 -18 27 -10 52 17 56 9 1 14 -2 10 -7 -3 -5 2 -9 10 -9 9
0 16 -4 16 -10 0 -14 -22 -8 -37 10 -11 13 -12 12 -10 -7 4 -31 16 -40 27 -23
8 12 10 12 10 1 0 -7 6 -11 15 -7 8 3 19 -2 24 -11 7 -14 10 -13 16 7 5 16 9
19 15 10 5 -8 8 -3 7 13 -1 15 -6 25 -12 23 -5 -2 -9 -9 -7 -15 1 -7 -2 -10
-8 -6 -6 4 -19 1 -28 -6 -14 -11 -15 -11 -5 0 6 7 9 19 7 26 -3 7 -1 16 5 19
6 4 8 14 5 24 -5 14 -3 14 6 -2 10 -14 10 -20 -1 -27 -7 -4 -10 -11 -6 -15 3
-4 13 -1 22 6 9 7 18 10 22 6 3 -3 17 1 30 9 25 17 31 11 11 -9 -13 -12 -21
-16 -34 -16 -4 0 -1 -7 6 -15 6 -8 9 -20 5 -27 -4 -7 3 -1 16 14 15 18 31 26
44 24 11 -3 20 -5 20 -6 0 -1 10 -3 22 -4 15 -2 19 2 15 12 -4 11 -2 13 9 7
12 -8 12 -6 0 8 -15 19 -26 23 -15 5 5 -7 3 -8 -6 -3 -9 6 -11 4 -5 -5 6 -10
4 -11 -6 -4 -21 13 -40 14 -33 2 5 -7 2 -8 -5 -4 -7 5 -10 10 -7 13 2 3 1 15
-4 27 -6 17 -4 22 9 22 10 0 18 -6 18 -13 0 -7 -4 -10 -9 -7 -10 6 -11 -10 -1
-19 11 -12 44 25 34 37 -7 8 -4 12 9 12 14 0 16 -4 10 -16 -6 -11 -1 -22 15
-37 15 -13 26 -16 28 -9 3 7 10 6 22 -4 18 -15 18 -14 1 12 -17 26 -35 41 -20
16 4 -7 3 -8 -4 -4 -18 11 -14 27 5 24 10 -2 22 7 30 22 9 17 13 20 13 8 0 -9
-4 -19 -9 -22 -11 -7 -9 -32 4 -43 4 -4 5 -2 0 6 -5 9 -3 12 6 9 8 -3 13 -12
11 -19 -3 -12 -1 -12 10 0 10 11 10 14 0 18 -6 3 -9 10 -6 15 4 7 2 8 -4 4 -8
-4 -10 -2 -6 8 3 9 12 12 22 9 15 -6 15 -4 0 14 -10 11 -18 23 -18 27 0 5 9
-2 19 -15 16 -19 22 -22 32 -11 11 10 10 12 -3 12 -22 0 -29 13 -16 30 8 13 9
12 5 -2 -8 -23 33 -32 53 -12 14 15 13 15 -10 10 -19 -5 -21 -5 -9 3 9 6 26 9
38 6 13 -2 24 2 28 11 4 12 8 12 20 2 13 -10 19 -8 39 15 13 16 24 23 24 17 0
-6 16 1 35 16 20 15 32 31 28 38 -4 6 2 4 12 -4 17 -14 18 -13 11 5 -4 11 -4
16 0 12 5 -4 14 3 22 15 11 18 12 19 7 3 -4 -11 -10 -27 -13 -35 -5 -13 -3
-13 11 -1 15 12 17 11 15 -9 -2 -13 3 -24 10 -26 7 -1 8 0 2 3 -5 2 -10 9 -10
14 0 6 4 8 9 4 17 -10 39 23 35 55 -3 25 -1 28 10 18 10 -10 11 -15 2 -20 -8
-6 -7 -8 2 -8 7 0 10 -5 6 -12 -4 -7 -3 -8 5 -4 6 4 9 11 6 16 -3 5 2 13 11
18 11 6 13 11 5 16 -6 4 -11 2 -11 -4 0 -6 -5 -8 -11 -4 -8 5 -7 9 4 16 9 4
14 17 12 28 -2 11 0 18 6 15 5 -4 9 -1 9 6 0 7 3 9 6 6 4 -4 1 -13 -6 -22 -7
-8 -8 -15 -2 -15 5 0 15 7 22 15 10 12 10 18 -1 33 -11 14 -11 15 1 5 19 -17
30 -16 30 1 0 8 5 18 11 22 7 4 9 0 5 -14 -4 -12 -2 -23 5 -28 8 -4 9 -3 5 4
-4 7 -3 12 3 12 11 0 9 19 -3 38 -11 18 8 37 26 26 13 -9 18 -10 39 -13 5 0 7
-6 3 -12 -4 -8 -9 -7 -15 2 -5 8 -9 9 -9 3 0 -6 8 -18 17 -25 9 -8 14 -9 10
-3 -3 6 5 21 19 33 18 16 23 28 18 43 -4 14 -2 18 5 14 7 -4 9 -1 5 8 -6 15
11 17 34 2 8 -5 19 -3 25 4 9 9 8 14 -5 24 -23 17 -23 21 2 23 11 1 18 -2 16
-6 -3 -4 2 -8 10 -8 10 0 11 4 4 11 -5 5 -10 14 -10 20 0 6 5 5 12 -2 7 -7 17
-12 23 -12 5 0 2 5 -7 11 -10 5 -18 15 -18 21 0 6 7 5 17 -3 14 -12 14 -10 -1
14 -10 15 -15 27 -10 27 4 0 -1 6 -12 14 -10 8 -16 18 -11 22 4 4 7 2 7 -4 0
-7 5 -12 10 -12 6 0 10 7 10 15 0 18 9 19 30 4 13 -9 12 -10 -2 -5 -13 4 -15
1 -11 -11 5 -11 3 -14 -6 -9 -8 5 -6 -4 4 -25 23 -44 24 -45 22 -20 -1 11 -5
21 -9 21 -4 0 -8 5 -8 10 0 6 5 9 12 8 11 -3 13 10 9 41 0 5 -9 12 -18 14 -14
4 -12 5 5 6 26 1 28 9 6 25 -12 10 -8 12 25 12 33 1 38 -2 30 -13 -6 -7 -15
-11 -19 -8 -13 8 -19 -21 -8 -36 8 -11 9 -10 4 4 -3 9 -1 17 3 17 13 0 22 -30
15 -43 -5 -9 -4 -9 5 -1 10 9 10 17 2 32 -8 15 -7 23 3 31 7 6 16 8 19 4 4 -3
7 -1 7 5 0 7 -4 12 -8 12 -4 0 -8 9 -9 19 -1 16 4 19 28 16 27 -4 28 -3 13 12
-9 9 -19 12 -22 7 -8 -11 -57 -12 -68 -1 -5 4 -1 5 7 2 20 -8 55 40 36 49 -6
3 -2 3 9 1 16 -4 21 -1 21 12 0 36 3 43 21 43 15 1 15 2 -3 16 -19 16 -19 16
5 9 22 -7 23 -6 12 7 -10 13 -10 18 1 30 7 7 13 23 12 35 -1 12 3 21 9 20 6
-1 10 6 10 15 -1 11 4 15 15 10 14 -5 14 -4 1 13 -9 11 -10 16 -2 11 6 -4 12
-2 12 3 0 6 -4 11 -10 11 -5 0 -10 5 -10 11 0 8 5 7 16 -1 13 -11 16 -10 21 8
3 12 10 19 15 16 5 -4 3 -13 -5 -22 -22 -26 -32 -46 -19 -38 7 4 12 2 12 -3 0
-6 -5 -11 -11 -11 -5 0 -7 -5 -3 -12 5 -7 3 -8 -6 -3 -9 5 -11 4 -6 -4 5 -7 2
-10 -6 -9 -7 2 -13 -4 -13 -13 0 -9 -5 -23 -11 -30 -6 -8 -10 -21 -9 -29 1 -8
-2 -22 -7 -32 -5 -10 -3 -18 6 -21 10 -4 12 1 9 16 -5 22 -5 22 12 2 16 -19
16 -19 1 8 -17 28 -10 36 13 15 9 -9 12 -9 7 -1 -3 6 1 18 9 26 17 18 19 27 6
27 -5 0 -13 -9 -16 -20 -4 -11 -11 -18 -16 -15 -5 4 -5 13 1 24 5 10 6 22 2
26 -4 5 1 5 10 2 10 -3 17 -3 17 1 -3 21 3 24 17 6 14 -18 15 -18 4 4 -9 18
-8 27 1 38 8 10 8 14 0 14 -6 0 -11 5 -11 10 0 7 6 7 18 1 14 -7 19 -6 19 4 0
8 -7 11 -16 7 -14 -5 -14 -3 -3 10 9 12 10 18 2 23 -6 4 -9 13 -6 21 3 7 1 16
-4 19 -9 6 -14 -8 -11 -27 0 -5 -4 -8 -10 -8 -7 0 -8 7 -4 18 5 9 8 24 9 33 0
9 6 15 13 12 7 -3 13 -1 13 5 0 6 -6 12 -12 15 -7 3 -3 4 9 4 12 -1 19 -5 16
-10 -10 -17 -11 -67 -1 -67 6 0 8 7 5 15 -4 8 -2 17 3 20 4 3 11 -1 13 -7 4
-9 6 -10 6 -1 1 6 -3 15 -9 18 -5 3 -10 11 -10 17 0 7 6 6 15 -2 8 -7 15 -8
15 -3 0 13 -56 44 -64 36 -4 -4 -4 1 0 12 5 11 9 14 12 7 2 -7 8 -12 13 -12 6
0 8 4 4 9 -3 5 0 13 6 17 7 4 9 3 6 -3 -4 -6 0 -19 8 -29 13 -19 13 -18 12 1
-1 11 3 19 8 18 6 -1 11 7 11 17 0 10 -4 17 -7 14 -4 -2 -10 0 -13 5 -4 5 -1
11 6 14 7 2 5 3 -4 2 -10 -2 -18 3 -18 12 0 8 5 11 12 7 7 -4 8 -3 4 4 -6 10
4 16 24 14 3 0 7 9 7 21 2 20 1 20 -8 5 -6 -10 -15 -18 -21 -18 -7 0 -6 5 2
15 10 12 8 18 -10 33 -19 16 -21 22 -11 40 7 12 9 27 5 33 -4 8 -1 8 13 1 12
-7 25 -7 34 -1 12 7 12 9 0 9 -8 0 -11 3 -8 7 4 3 2 12 -4 20 -8 9 -8 17 0 26
6 8 8 17 4 20 -3 4 2 7 13 8 17 0 16 1 -3 9 -16 6 -21 15 -17 27 5 15 4 15 -4
3 -6 -8 -8 -18 -6 -22 3 -4 1 -8 -4 -8 -6 0 -9 11 -8 24 0 13 4 22 9 19 4 -2
7 1 7 6 0 6 -4 11 -10 11 -5 0 -10 5 -10 11 0 5 4 8 9 5 8 -6 25 30 22 48 -1
5 4 6 12 3 7 -3 14 1 14 8 0 8 -7 11 -15 7 -10 -3 -13 -1 -8 6 4 7 2 12 -4 12
-6 0 -8 5 -4 12 4 7 3 8 -5 4 -6 -4 -9 -12 -6 -17 12 -19 14 -50 3 -43 -7 4
-8 3 -4 -4 4 -7 2 -12 -3 -12 -15 0 -14 13 2 29 10 11 9 13 -6 8 -13 -5 -16
-3 -10 6 4 6 8 17 8 22 2 23 18 44 29 38 8 -5 8 -3 0 8 -14 18 -16 61 -3 53 6
-3 5 3 -3 15 -18 29 -24 26 -23 -8 0 -17 4 -27 10 -23 5 3 4 -2 -4 -11 -9 -12
-10 -17 -2 -17 7 0 9 -5 6 -11 -4 -6 -10 -8 -13 -5 -5 6 -13 74 -14 128 -1 15
-4 25 -8 23 -4 -2 -6 7 -4 20 1 14 -3 25 -9 25 -7 0 -4 6 5 13 19 15 18 49 -3
55 -11 3 -11 1 1 -8 10 -8 11 -10 2 -8 -8 2 -12 6 -10 9 2 3 -2 12 -8 20 -16
20 -26 51 -14 44 16 -10 12 7 -7 27 -15 17 -15 19 2 38 14 15 21 17 26 8 4 -7
5 -17 2 -23 -4 -5 -2 -7 2 -2 14 12 13 45 -1 43 -6 -1 -19 -8 -28 -15 -14 -11
-16 -11 -16 3 0 11 -5 14 -12 10 -7 -5 -8 -3 -4 5 5 7 14 10 22 7 7 -3 16 -2
18 3 3 4 -1 8 -9 9 -8 1 -21 3 -29 4 -15 1 -16 15 -1 38 5 8 10 24 11 36 2 21
1 21 -15 6 -14 -15 -15 -18 -2 -23 12 -4 12 -7 2 -14 -14 -8 -33 13 -25 27 3
5 -2 11 -11 14 -14 6 -14 8 2 21 17 14 17 14 -2 9 l-20 -6 20 16 c20 16 19 16
-4 9 -22 -7 -23 -5 -17 18 3 14 1 29 -4 32 -6 4 -8 10 -6 14 3 4 -1 8 -9 8
-13 0 -13 -3 0 -17 17 -19 19 -30 5 -30 -5 0 -10 6 -10 14 0 7 -6 19 -14 26
-16 12 -12 36 7 43 7 2 3 3 -9 1 -14 -2 -26 6 -39 29 -11 18 -20 35 -20 38 0
3 -8 13 -18 23 -9 10 -15 21 -13 24 2 4 -2 13 -10 20 -8 7 -14 9 -14 5 -1 -4
-8 4 -16 20 -8 15 -20 27 -26 27 -6 0 -8 3 -5 6 4 4 15 1 24 -7 17 -13 17 -13
1 7 -12 14 -14 24 -8 30 7 7 6 11 -4 11 -8 0 -13 -4 -10 -8 2 -4 0 -10 -6 -14
-5 -3 -10 0 -10 8 0 7 -11 20 -25 27 -20 11 -23 16 -13 29 7 9 9 13 4 9 -14
-12 -48 12 -42 28 4 9 2 12 -5 8 -13 -8 -69 44 -69 65 0 14 -1 14 -10 1 -8
-13 -10 -13 -10 1 0 9 -7 19 -15 23 -9 3 -12 12 -8 23 5 16 4 16 -9 -1 -15
-19 -16 -19 -22 2 -4 12 -12 20 -17 17 -5 -4 -9 -2 -9 4 0 5 6 12 13 15 6 3 0
3 -15 1 -31 -4 -48 13 -27 26 8 5 9 9 4 9 -6 0 -16 -5 -23 -12 -8 -8 -12 -8
-12 -1 0 6 10 18 23 27 l22 17 -23 -11 c-12 -6 -28 -8 -34 -4 -7 5 -8 2 -3 -7
6 -11 5 -12 -5 -2 -11 10 -11 15 1 30 13 17 13 17 -7 1 -24 -21 -41 -24 -25
-4 9 10 7 13 -6 13 -39 0 -45 3 -39 19 5 14 4 15 -9 4 -18 -15 -20 0 -2 20 6
8 1 6 -12 -5 -14 -11 -21 -14 -17 -7 4 7 1 12 -8 12 -27 0 -31 1 -47 16 -9 8
-19 11 -24 7 -4 -5 -4 3 -1 17 6 19 5 22 -3 10 -9 -12 -12 -13 -20 -1 -6 9
-11 10 -15 2 -5 -7 -15 -6 -33 6 -23 15 -24 18 -9 29 15 10 14 12 -7 10 -17
-1 -23 -6 -20 -16 3 -11 1 -10 -10 3 -16 19 -32 24 -21 6 4 -7 -1 -7 -16 1
-14 7 -20 17 -16 28 5 15 5 15 -6 2 -16 -20 -48 -14 -49 8 0 11 -2 12 -6 5 -7
-20 -23 -15 -16 5 6 16 5 16 -13 0 -13 -11 -24 -14 -30 -8 -5 5 -18 11 -29 13
-32 6 -55 18 -50 26 2 4 -2 8 -9 8 -8 0 -12 -6 -9 -14 4 -9 0 -11 -11 -7 -9 3
-14 9 -11 13 2 4 -2 8 -10 8 -8 0 -12 -4 -9 -9 3 -4 1 -8 -5 -8 -5 0 -11 6
-14 13 -3 9 -7 9 -17 0 -15 -13 -43 -6 -34 9 5 7 1 7 -10 1 -20 -11 -88 -4
-80 8 3 5 0 9 -5 9 -6 0 -11 -4 -11 -10 0 -18 -17 -11 -29 13 -11 21 -11 21
-6 0z m-1215 -523 c-34 -35 -40 -37 -33 -10 3 11 9 18 13 15 4 -3 13 2 20 10
7 8 16 15 21 15 5 0 -5 -13 -21 -30z m-235 -330 c3 -5 -1 -10 -10 -10 -9 0
-13 5 -10 10 3 6 8 10 10 10 2 0 7 -4 10 -10z m-175 -579 c0 -4 -3 -11 -7 -14
-8 -9 -34 13 -28 24 6 9 35 1 35 -10z m-23 -137 c-3 -4 -2 -15 4 -25 7 -14 6
-17 -4 -14 -16 7 -20 45 -5 45 6 0 8 -3 5 -6z m3209 -131 c-2 -10 -11 -19 -22
-20 -18 -3 -18 -2 1 6 11 5 16 10 12 10 -5 1 -5 6 -2 11 9 15 14 12 11 -7z m0
-66 c1 -9 -2 -15 -7 -11 -5 3 -6 10 -3 16 5 7 1 9 -9 5 -10 -3 -17 -2 -17 4 0
18 33 5 36 -14z m-42 -109 c-5 -8 -2 -9 11 -4 14 5 16 4 7 -7 -7 -8 -9 -16 -6
-19 2 -3 -1 -8 -8 -11 -9 -3 -13 3 -12 22 3 32 3 31 10 31 3 0 2 -5 -2 -12z
m11 -88 c15 -17 16 -23 5 -33 -10 -9 -11 -9 -6 0 4 7 -2 21 -14 33 -11 11 -16
20 -12 20 5 0 17 -9 27 -20z m-15 -10 c0 -5 -4 -10 -10 -10 -5 0 -10 5 -10 10
0 6 5 10 10 10 6 0 10 -4 10 -10z m-3080 -205 c0 -2 -7 -5 -15 -9 -9 -3 -15 0
-15 9 0 9 6 12 15 9 8 -4 15 -7 15 -9z m14 -67 c-10 -20 -19 -28 -22 -20 -2 7
4 22 14 33 25 27 27 24 8 -13z m86 -123 c0 -16 -27 -28 -35 -14 -4 5 -1 8 7 7
8 -2 12 4 10 16 -2 11 1 15 7 11 6 -3 11 -12 11 -20z m24 -103 c3 -5 -1 -9 -9
-9 -8 0 -15 4 -15 9 0 4 4 8 9 8 6 0 12 -4 15 -8z m2773 -17 c5 -4 3 -5 -4 -2
-6 4 -13 2 -15 -4 -2 -7 -8 -6 -16 3 -9 12 -8 14 8 13 11 -1 23 -5 27 -10z
m-2649 -100 c-3 -3 -9 2 -12 12 -6 14 -5 15 5 6 7 -7 10 -15 7 -18z m2519 -22
c-4 -3 0 -11 9 -17 14 -11 13 -15 -6 -36 -12 -14 -19 -19 -15 -12 3 6 2 12 -3
12 -6 0 -12 -7 -16 -15 -7 -19 3 -47 15 -39 5 3 9 0 9 -5 0 -20 -20 -11 -32
14 -10 22 -8 29 11 49 12 13 21 27 20 32 -2 15 1 24 8 24 3 0 3 -3 0 -7z m-27
-26 c0 -2 -10 -12 -22 -23 l-23 -19 19 23 c18 21 26 27 26 19z m-2390 -53 c0
-8 -19 -13 -24 -6 -3 5 1 9 9 9 8 0 15 -2 15 -3z m2370 -27 c0 -5 -4 -5 -10
-2 -5 3 -10 14 -10 23 0 15 2 15 10 2 5 -8 10 -19 10 -23z m-36 -11 c-3 -9
-10 -13 -15 -10 -5 3 -3 11 4 19 15 16 19 13 11 -9z m-44 -16 c-6 -11 -15 -20
-20 -20 -6 0 -2 9 7 20 10 11 19 20 21 20 1 0 -2 -9 -8 -20z m-2240 -10 c0 -5
-4 -10 -10 -10 -5 0 -10 5 -10 10 0 6 5 10 10 10 6 0 10 -4 10 -10z m2290 -19
c0 -5 -6 -14 -14 -20 -10 -9 -17 -7 -27 6 -11 13 -11 17 -1 20 6 3 9 9 6 15
-4 6 2 5 15 -1 11 -7 21 -15 21 -20z m-2328 0 c-2 -8 3 -11 12 -8 9 4 18 1 22
-5 4 -6 3 -8 -4 -4 -6 3 -13 2 -17 -4 -4 -6 -15 -3 -30 7 -25 19 -23 36 3 30
10 -2 16 -9 14 -16z m55 -13 c-3 -8 -6 -5 -6 6 -1 11 2 17 5 13 3 -3 4 -12 1
-19z m37 -12 c-3 -8 2 -16 13 -19 15 -4 16 -5 1 -6 -19 -1 -32 14 -23 29 9 15
15 12 9 -4z m80 -72 c3 -8 2 -12 -4 -9 -6 3 -10 10 -10 16 0 14 7 11 14 -7z
m1943 -40 c-3 -3 -12 -4 -19 -1 -8 3 -5 6 6 6 11 1 17 -2 13 -5z m-39 -29 c0
-14 -6 -25 -12 -26 -6 0 -3 -4 7 -8 17 -6 17 -8 3 -20 -13 -11 -16 -11 -17 0
0 8 -2 22 -4 31 -2 10 1 20 6 24 5 3 7 10 4 15 -4 5 -2 9 3 9 5 0 10 -11 10
-25z m-59 -8 c-2 -1 -13 -9 -24 -17 -19 -14 -19 -14 -6 3 7 9 18 17 24 17 6 0
8 -1 6 -3z m-1651 -76 c-7 -12 -17 -21 -22 -21 -4 0 -3 6 3 13 6 8 7 18 3 22
-4 5 -1 5 6 1 7 -4 12 -2 12 5 0 7 3 10 6 7 3 -3 -1 -15 -8 -27z m1586 14
c-23 -17 -34 -19 -34 -4 0 5 4 8 9 4 5 -3 12 -1 16 5 3 5 11 10 18 10 6 0 2
-7 -9 -15z m-1520 -31 c3 -8 2 -12 -4 -9 -6 3 -10 10 -10 16 0 14 7 11 14 -7z
m1 -24 c8 0 17 -5 21 -12 5 -8 2 -9 -9 -5 -9 3 -19 2 -22 -4 -4 -5 -3 -9 2 -8
4 1 10 0 13 -1 20 -8 52 -4 61 7 6 7 16 13 22 13 5 0 -7 -13 -28 -30 -21 -16
-41 -30 -46 -30 -11 0 -34 42 -31 57 1 6 -2 14 -8 18 -5 3 -10 12 -10 18 0 7
5 4 11 -5 5 -10 16 -18 24 -18z m60 10 c3 -5 1 -10 -4 -10 -6 0 -11 5 -11 10
0 6 2 10 4 10 3 0 8 -4 11 -10z m1380 0 c3 -5 1 -10 -4 -10 -6 0 -11 5 -11 10
0 6 2 10 4 10 3 0 8 -4 11 -10z m-1301 -46 c3 -8 2 -12 -4 -9 -6 3 -10 10 -10
16 0 14 7 11 14 -7z m-40 -13 c3 -5 -1 -11 -9 -15 -15 -6 -29 7 -18 18 9 9 21
8 27 -3z m131 -29 c-3 -3 -11 0 -18 7 -9 10 -8 11 6 5 10 -3 15 -9 12 -12z
m35 8 c0 -5 -5 -10 -11 -10 -5 0 -7 5 -4 10 3 6 8 10 11 10 2 0 4 -4 4 -10z
m101 -34 c8 4 9 3 5 -4 -10 -17 -33 -15 -40 4 -5 14 -4 15 8 5 8 -7 21 -9 27
-5z m74 -14 c-3 -3 -11 0 -18 7 -9 10 -8 11 6 5 10 -3 15 -9 12 -12z m602 -4
c-3 -8 -6 -5 -6 6 -1 11 2 17 5 13 3 -3 4 -12 1 -19z m153 -3 c14 -19 14 -19
-2 -6 -10 7 -18 18 -18 24 0 6 1 8 3 6 1 -2 9 -13 17 -24z m-537 -18 c4 3 7 1
7 -5 0 -19 -15 -14 -36 11 -19 22 -19 22 2 4 11 -9 24 -14 27 -10z m108 -4
c13 -16 12 -17 -3 -4 -17 13 -22 21 -14 21 2 0 10 -8 17 -17z m-481 -3 c0 -5
-2 -10 -4 -10 -3 0 -8 5 -11 10 -3 6 -1 10 4 10 6 0 11 -4 11 -10z m550 0
c-18 -12 -30 -13 -30 -2 0 4 10 9 22 9 18 2 20 0 8 -7z m250 -4 c0 -2 -6 -9
-14 -15 -11 -9 -16 -9 -22 0 -4 7 -3 9 4 5 6 -3 13 -2 17 4 6 10 15 14 15 6z
m-80 -36 c0 -5 -2 -10 -4 -10 -3 0 -8 5 -11 10 -3 6 -1 10 4 10 6 0 11 -4 11
-10z"/>
<path d="M3055 769 c-4 -6 -5 -12 -2 -15 2 -3 7 2 10 11 7 17 1 20 -8 4z"/>
<path d="M2945 641 c-3 -5 0 -13 6 -17 7 -4 9 -3 5 4 -3 5 0 13 6 15 9 4 10 6
1 6 -6 1 -14 -3 -18 -8z"/>
<path d="M1089 308 c11 -15 41 -15 41 -1 0 3 -6 3 -14 0 -7 -3 -20 0 -27 6
-11 10 -11 9 0 -5z"/>
<path d="M1967 3419 c7 -7 15 -10 18 -7 3 3 -2 9 -12 12 -14 6 -15 5 -6 -5z"/>
<path d="M1474 3409 c-3 -6 -2 -15 3 -20 5 -5 9 -1 9 11 0 23 -2 24 -12 9z"/>
<path d="M1570 3400 c-9 -6 -10 -10 -3 -10 6 0 15 5 18 10 8 12 4 12 -15 0z"/>
<path d="M2015 3399 c-4 -6 -5 -12 -2 -15 2 -3 7 2 10 11 7 17 1 20 -8 4z"/>
<path d="M2153 3375 c0 -8 4 -12 9 -9 5 3 6 10 3 15 -9 13 -12 11 -12 -6z"/>
<path d="M2206 3357 c3 -10 9 -15 12 -12 3 3 0 11 -7 18 -10 9 -11 8 -5 -6z"/>
<path d="M2285 3340 c-3 -6 1 -7 9 -4 18 7 21 14 7 14 -6 0 -13 -4 -16 -10z"/>
<path d="M1230 3326 c0 -2 8 -10 18 -17 15 -13 16 -12 3 4 -13 16 -21 21 -21
13z"/>
<path d="M1136 3298 c3 -4 11 -5 19 -1 21 7 19 12 -4 10 -11 0 -18 -5 -15 -9z"/>
<path d="M2467 3299 c7 -7 15 -10 18 -7 3 3 -2 9 -12 12 -14 6 -15 5 -6 -5z"/>
<path d="M2420 3285 c0 -2 6 -8 13 -14 10 -8 14 -7 14 2 0 8 -6 14 -14 14 -7
0 -13 -1 -13 -2z"/>
<path d="M1076 3257 c3 -10 9 -15 12 -12 3 3 0 11 -7 18 -10 9 -11 8 -5 -6z"/>
<path d="M1031 3247 c-8 -10 -7 -14 2 -14 8 0 14 6 14 14 0 7 -1 13 -2 13 -2
0 -8 -6 -14 -13z"/>
<path d="M2531 3246 c-9 -11 -9 -16 1 -22 7 -4 10 -4 6 1 -4 4 -3 14 3 22 6 7
9 13 6 13 -2 0 -10 -6 -16 -14z"/>
<path d="M994 3216 c1 -8 5 -18 8 -22 4 -3 5 1 4 10 -1 8 -5 18 -8 22 -4 3 -5
-1 -4 -10z"/>
<path d="M816 3078 c3 -5 10 -6 15 -3 13 9 11 12 -6 12 -8 0 -12 -4 -9 -9z"/>
<path d="M735 3071 c-3 -5 -2 -12 3 -15 5 -3 9 1 9 9 0 17 -3 19 -12 6z"/>
<path d="M766 3058 c3 -5 10 -6 15 -3 13 9 11 12 -6 12 -8 0 -12 -4 -9 -9z"/>
<path d="M2895 3000 c3 -5 8 -10 11 -10 2 0 4 5 4 10 0 6 -5 10 -11 10 -5 0
-7 -4 -4 -10z"/>
<path d="M670 2979 c0 -5 5 -7 10 -4 6 3 10 8 10 11 0 2 -4 4 -10 4 -5 0 -10
-5 -10 -11z"/>
<path d="M2899 2966 c14 -15 26 -26 28 -26 9 0 -24 40 -37 45 -8 4 -4 -5 9
-19z"/>
<path d="M2955 2920 c-2 -3 5 -7 16 -7 10 -1 19 2 19 6 0 9 -29 10 -35 1z"/>
<path d="M566 2838 c3 -5 10 -6 15 -3 13 9 11 12 -6 12 -8 0 -12 -4 -9 -9z"/>
<path d="M515 2800 c2 -27 10 -33 12 -10 1 11 -2 22 -6 24 -4 3 -7 -4 -6 -14z"/>
<path d="M490 2785 c0 -5 5 -17 10 -25 5 -8 10 -10 10 -5 0 6 -5 17 -10 25 -5
8 -10 11 -10 5z"/>
<path d="M3080 2780 c-8 -5 -10 -10 -5 -10 6 0 17 5 25 10 8 5 11 10 5 10 -5
0 -17 -5 -25 -10z"/>
<path d="M3140 2740 c8 -5 20 -10 25 -10 6 0 3 5 -5 10 -8 5 -19 10 -25 10 -5
0 -3 -5 5 -10z"/>
<path d="M3115 2720 c3 -5 11 -10 16 -10 6 0 7 5 4 10 -3 6 -11 10 -16 10 -6
0 -7 -4 -4 -10z"/>
<path d="M416 2695 c-9 -26 -7 -32 5 -12 6 10 9 21 6 23 -2 3 -7 -2 -11 -11z"/>
<path d="M460 2701 c0 -5 -7 -17 -16 -26 -9 -9 -14 -18 -11 -21 3 -3 15 9 27
25 12 17 17 31 11 31 -6 0 -11 -4 -11 -9z"/>
<path d="M3150 2701 c0 -6 4 -12 8 -15 5 -3 9 1 9 9 0 8 -4 15 -9 15 -4 0 -8
-4 -8 -9z"/>
<path d="M3167 2655 c-6 -15 10 -32 20 -21 4 3 1 6 -5 6 -6 0 -9 7 -6 15 4 8
4 15 1 15 -3 0 -7 -7 -10 -15z"/>
<path d="M383 2637 c-3 -6 -1 -7 5 -3 5 3 12 1 14 -6 3 -8 6 -7 10 3 7 17 -19
22 -29 6z"/>
<path d="M395 2601 c-3 -5 -2 -12 3 -15 5 -3 9 1 9 9 0 17 -3 19 -12 6z"/>
<path d="M3246 2558 c3 -5 10 -6 15 -3 13 9 11 12 -6 12 -8 0 -12 -4 -9 -9z"/>
<path d="M296 2498 c3 -5 10 -6 15 -3 13 9 11 12 -6 12 -8 0 -12 -4 -9 -9z"/>
<path d="M295 2469 c-4 -6 -5 -12 -2 -15 2 -3 7 2 10 11 7 17 1 20 -8 4z"/>
<path d="M327 2465 c3 -8 9 -12 14 -9 12 7 11 11 -5 17 -10 4 -13 1 -9 -8z"/>
<path d="M3268 2463 c7 -3 16 -2 19 1 4 3 -2 6 -13 5 -11 0 -14 -3 -6 -6z"/>
<path d="M3311 2406 c-9 -10 -8 -15 2 -19 8 -3 13 3 13 14 0 23 0 23 -15 5z"/>
<path d="M275 2360 c2 -12 -2 -23 -10 -27 -8 -3 -12 -9 -9 -14 3 -5 -1 -12 -9
-15 -7 -2 -14 -12 -14 -20 0 -12 5 -9 18 7 10 13 19 29 19 34 0 6 5 3 10 -5 5
-8 10 -10 11 -5 0 6 2 18 4 27 2 9 -3 22 -11 28 -10 10 -12 8 -9 -10z"/>
<path d="M3326 2301 c-3 -5 1 -14 9 -21 10 -9 15 -9 15 -1 0 6 -5 11 -11 11
-5 0 -7 5 -4 10 3 6 4 10 1 10 -3 0 -7 -4 -10 -9z"/>
<path d="M3351 2256 c-14 -17 -5 -43 14 -43 8 0 15 4 15 9 0 4 -7 8 -15 8 -18
0 -19 12 -3 28 7 7 9 12 6 12 -3 0 -11 -6 -17 -14z"/>
<path d="M3390 2180 c0 -5 5 -10 11 -10 5 0 7 5 4 10 -3 6 -8 10 -11 10 -2 0
-4 -4 -4 -10z"/>
<path d="M218 2173 c6 -3 12 -9 12 -14 0 -6 -6 -7 -12 -3 -8 5 -7 0 2 -11 14
-17 13 -18 -3 -12 -15 6 -16 4 -7 -14 13 -23 30 -17 25 9 -1 9 1 24 6 32 5 12
2 16 -14 17 -12 0 -16 -1 -9 -4z"/>
<path d="M175 2140 c3 -5 8 -10 11 -10 2 0 4 5 4 10 0 6 -5 10 -11 10 -5 0 -7
-4 -4 -10z"/>
<path d="M3385 2142 c-6 -4 -10 -13 -9 -19 1 -7 2 -17 3 -23 0 -5 11 -10 24
-9 l22 0 -22 9 c-27 11 -28 14 -7 34 16 16 8 22 -11 8z"/>
<path d="M190 2100 c0 -5 5 -10 12 -10 6 0 3 -10 -8 -22 -15 -19 -16 -20 -1
-9 21 16 23 -1 2 -19 -8 -7 -15 -18 -14 -24 0 -6 3 -6 6 2 4 9 8 10 18 2 10
-9 13 -7 10 7 -1 10 2 24 8 31 6 8 5 12 -4 12 -11 0 -11 2 -2 8 9 6 7 11 -7
20 -12 7 -20 8 -20 2z"/>
<path d="M3389 2077 c0 -1 -2 -10 -4 -20 -3 -15 -1 -16 13 -5 9 7 18 13 20 14
2 1 -4 4 -13 7 -8 4 -15 5 -16 4z"/>
<path d="M140 2046 c0 -2 8 -10 18 -17 15 -13 16 -12 3 4 -13 16 -21 21 -21
13z"/>
<path d="M3415 2040 c3 -5 8 -10 11 -10 2 0 4 5 4 10 0 6 -5 10 -11 10 -5 0
-7 -4 -4 -10z"/>
<path d="M139 1993 c-13 -17 -13 -17 6 -3 11 8 22 16 24 17 2 2 0 3 -6 3 -6 0
-17 -8 -24 -17z"/>
<path d="M3433 1965 c0 -8 4 -12 9 -9 5 3 6 10 3 15 -9 13 -12 11 -12 -6z"/>
<path d="M165 1959 c-4 -6 -5 -12 -2 -15 2 -3 7 2 10 11 7 17 1 20 -8 4z"/>
<path d="M3434 1909 c1 -7 10 -13 19 -15 9 -1 15 2 11 7 -3 5 -9 7 -14 4 -4
-3 -11 0 -13 5 -3 6 -4 5 -3 -1z"/>
<path d="M135 1900 c3 -5 8 -10 11 -10 2 0 4 5 4 10 0 6 -5 10 -11 10 -5 0 -7
-4 -4 -10z"/>
<path d="M3425 1809 c-4 -12 -2 -26 3 -31 8 -8 9 -4 6 13 -5 23 -5 23 10 5 9
-11 16 -15 16 -9 0 7 -5 15 -10 18 -6 4 -8 11 -5 16 4 5 2 9 -4 9 -5 0 -13 -9
-16 -21z"/>
<path d="M3446 1698 c3 -5 10 -6 15 -3 13 9 11 12 -6 12 -8 0 -12 -4 -9 -9z"/>
<path d="M3430 1680 c0 -5 5 -10 11 -10 5 0 7 5 4 10 -3 6 -8 10 -11 10 -2 0
-4 -4 -4 -10z"/>
<path d="M134 1649 c-3 -6 -2 -15 3 -20 5 -5 9 -1 9 11 0 23 -2 24 -12 9z"/>
<path d="M195 1640 c-3 -5 -1 -10 4 -10 6 0 11 5 11 10 0 6 -2 10 -4 10 -3 0
-8 -4 -11 -10z"/>
<path d="M3450 1620 c0 -5 5 -10 11 -10 5 0 7 5 4 10 -3 6 -8 10 -11 10 -2 0
-4 -4 -4 -10z"/>
<path d="M3418 1595 c-6 -14 -15 -25 -20 -25 -5 0 -4 9 2 20 6 11 7 20 1 20
-12 0 -23 -29 -15 -42 3 -5 12 -7 19 -4 8 3 16 1 19 -5 2 -5 3 -4 2 3 -2 7 1
23 5 36 11 30 1 28 -13 -3z"/>
<path d="M153 1565 c0 -8 4 -12 8 -9 4 2 10 -2 12 -8 4 -8 6 -9 6 -2 1 6 -5
17 -12 23 -10 8 -14 7 -14 -4z"/>
<path d="M200 1550 c-8 -5 -12 -12 -9 -15 4 -3 12 1 19 10 14 17 11 19 -10 5z"/>
<path d="M3430 1480 c0 -5 5 -10 11 -10 5 0 7 5 4 10 -3 6 -8 10 -11 10 -2 0
-4 -4 -4 -10z"/>
<path d="M3433 1433 c0 -9 4 -10 14 -2 7 6 13 12 13 14 0 1 -6 2 -13 2 -8 0
-14 -6 -14 -14z"/>
<path d="M207 1412 c7 -19 23 -32 38 -32 6 1 2 5 -8 11 -9 6 -15 14 -12 19 3
4 -2 10 -10 13 -10 4 -12 1 -8 -11z"/>
<path d="M177 1407 c-3 -8 1 -14 8 -14 7 0 11 6 8 14 -3 7 -6 13 -8 13 -2 0
-5 -6 -8 -13z"/>
<path d="M198 1373 c7 -3 16 -2 19 1 4 3 -2 6 -13 5 -11 0 -14 -3 -6 -6z"/>
<path d="M3370 1280 c0 -5 5 -10 10 -10 6 0 10 5 10 10 0 6 -4 10 -10 10 -5 0
-10 -4 -10 -10z"/>
<path d="M3350 1199 c0 -5 5 -7 10 -4 6 3 10 8 10 11 0 2 -4 4 -10 4 -5 0 -10
-5 -10 -11z"/>
<path d="M307 1118 c-4 -13 22 -68 33 -68 12 0 8 39 -6 50 -7 7 -11 16 -8 21
3 5 1 9 -5 9 -5 0 -11 -6 -14 -12z m32 -42 c-3 -3 -11 5 -18 17 -13 21 -12 21
5 5 10 -10 16 -20 13 -22z"/>
<path d="M3229 1056 c-1 -5 -4 -28 -8 -57 0 -5 -5 -8 -10 -4 -6 3 -15 -5 -22
-17 -12 -22 -12 -22 13 -6 17 11 29 13 41 7 13 -8 15 -6 11 6 -3 8 -10 12 -15
9 -5 -3 -9 -1 -9 5 0 5 10 13 21 16 15 5 18 10 9 15 -6 4 -11 11 -10 16 2 9
-19 19 -21 10z"/>
<path d="M313 1028 c1 -15 6 -23 11 -18 4 4 4 16 -2 26 -9 16 -10 14 -9 -8z"/>
<path d="M3268 1003 c6 -2 9 -10 6 -15 -4 -7 -2 -8 4 -4 18 11 14 26 -5 25
-11 0 -13 -3 -5 -6z"/>
<path d="M445 892 c-15 -11 -19 -45 -4 -40 7 2 13 14 14 26 1 12 1 22 1 22 -1
0 -5 -4 -11 -8z"/>
<path d="M397 879 c7 -7 15 -10 18 -7 3 3 -2 9 -12 12 -14 6 -15 5 -6 -5z"/>
<path d="M464 852 c-4 -9 -6 -20 -6 -24 1 -5 -3 -8 -10 -8 -6 0 -9 -3 -5 -6 3
-3 16 1 29 10 15 10 17 16 8 16 -12 0 -13 2 -1 9 8 5 9 11 3 15 -5 3 -13 -2
-18 -12z"/>
<path d="M499 789 c-8 -5 -5 -10 9 -18 14 -7 23 -8 27 -1 4 6 11 7 17 4 6 -4
9 -1 6 6 -5 15 -41 21 -59 9z"/>
<path d="M467 779 c7 -9 10 -19 6 -22 -3 -4 -1 -7 5 -7 17 0 15 16 -5 31 -16
12 -17 12 -6 -2z"/>
<path d="M540 666 c0 -2 8 -10 18 -17 15 -13 16 -12 3 4 -13 16 -21 21 -21 13z"/>
<path d="M3014 662 c3 -5 0 -13 -6 -15 -9 -4 -10 -6 -1 -6 17 -1 25 16 12 25
-7 4 -9 3 -5 -4z"/>
<path d="M2995 619 c-3 -4 2 -6 10 -5 21 3 28 13 10 13 -9 0 -18 -4 -20 -8z"/>
<path d="M2880 611 c0 -6 5 -13 10 -16 6 -4 8 -10 5 -15 -3 -5 -1 -11 5 -15
15 -9 12 -28 -2 -19 -7 4 -9 3 -5 -1 15 -17 36 -14 29 3 -5 15 -4 15 14 2 17
-13 16 -11 -2 10 -12 14 -24 33 -27 43 -7 18 -27 24 -27 8z"/>
<path d="M626 582 c-3 -5 1 -9 9 -9 8 0 12 4 9 9 -3 4 -7 8 -9 8 -2 0 -6 -4
-9 -8z"/>
<path d="M719 554 c-10 -12 -9 -18 5 -32 10 -9 16 -12 15 -7 -6 32 1 37 29 19
25 -16 26 -16 13 0 -25 30 -48 37 -62 20z m14 -9 c-3 -9 -8 -14 -10 -11 -3 3
-2 9 2 15 9 16 15 13 8 -4z"/>
<path d="M2823 520 c-24 -22 -28 -30 -17 -34 8 -3 12 -2 9 3 -3 5 -1 12 5 16
5 3 10 2 10 -4 0 -6 7 -7 17 -4 12 5 14 3 8 -7 -5 -9 -4 -11 4 -6 15 10 4 26
-17 26 -12 0 -13 3 -4 12 9 9 16 8 29 -4 10 -8 25 -18 33 -22 9 -5 8 -2 -2 7
-10 8 -14 18 -10 22 4 5 2 5 -5 1 -6 -3 -15 0 -20 8 -6 12 -14 9 -40 -14z"/>
<path d="M676 518 c3 -5 10 -6 15 -3 13 9 11 12 -6 12 -8 0 -12 -4 -9 -9z"/>
<path d="M2833 465 c0 -8 4 -12 9 -9 5 3 6 10 3 15 -9 13 -12 11 -12 -6z"/>
<path d="M813 443 c2 -12 7 -26 12 -30 4 -5 5 -2 1 5 -5 7 -1 12 11 13 14 0
15 2 3 6 -8 3 -18 11 -23 17 -4 6 -6 1 -4 -11z"/>
<path d="M870 431 c-14 -11 -20 -20 -13 -21 6 0 13 6 16 13 2 6 7 9 11 5 4 -3
3 -16 -3 -27 -10 -17 -9 -20 4 -15 8 3 13 10 10 14 -3 5 4 8 15 7 20 -1 29
-17 10 -17 -5 0 -10 -5 -10 -11 0 -5 5 -7 10 -4 6 3 13 -1 16 -9 5 -13 9 -12
24 7 18 22 16 47 -2 29 -7 -7 -19 0 -37 20 l-27 30 -24 -21z m41 -8 c13 -16
12 -17 -3 -4 -10 7 -18 15 -18 17 0 8 8 3 21 -13z m59 -27 c0 -2 -6 -9 -14
-15 -11 -9 -16 -9 -22 0 -4 7 -3 9 4 5 6 -3 13 -2 17 4 6 10 15 14 15 6z"/>
<path d="M2625 387 c-8 -12 -15 -18 -15 -13 0 5 -9 1 -20 -9 -11 -10 -20 -14
-20 -10 0 4 -9 0 -20 -10 -10 -9 -18 -22 -17 -27 1 -6 -4 -13 -12 -16 -8 -2
-11 0 -7 6 3 6 1 14 -5 18 -6 3 -15 0 -20 -7 -4 -7 -11 -10 -15 -6 -8 8 -44
-21 -44 -34 0 -5 7 -6 15 -3 27 11 16 -5 -15 -21 -17 -9 -30 -11 -30 -5 0 5 5
10 10 10 6 0 10 6 10 13 -1 6 -9 2 -19 -10 -10 -12 -22 -19 -25 -15 -4 3 -4
-2 0 -12 5 -14 9 -15 15 -4 5 7 9 10 9 5 0 -4 15 0 33 9 42 22 42 21 29 37 -9
11 -6 14 18 14 16 0 26 -5 23 -10 -3 -6 1 -6 12 0 10 6 27 9 39 6 20 -3 20 -3
1 6 -20 9 -18 12 8 15 6 0 13 7 13 14 3 26 5 26 20 2 l15 -25 -7 25 c-6 23 -6
24 11 10 11 -9 16 -10 11 -2 -4 6 -2 12 3 12 6 0 11 -5 11 -12 0 -6 3 -8 7 -4
5 4 0 14 -10 21 -18 13 -18 14 1 24 19 10 32 6 32 -11 0 -5 -6 -6 -12 -2 -7 4
-9 3 -5 -1 13 -15 34 -14 34 1 0 8 -4 14 -9 14 -4 0 -7 5 -5 11 4 21 -33 17
-48 -4z m-11 -25 c3 -5 -1 -9 -9 -9 -8 0 -12 4 -9 9 3 4 7 8 9 8 2 0 6 -4 9
-8z m-47 -25 c0 -8 -6 -14 -14 -14 -9 0 -10 4 -2 14 6 7 12 13 14 13 1 0 2 -6
2 -13z"/>
<path d="M1014 349 c-4 -7 -2 -15 5 -17 9 -3 9 -7 0 -18 -10 -12 -9 -13 4 -8
22 8 28 31 12 44 -10 8 -15 8 -21 -1z"/>
<path d="M955 341 c-3 -5 0 -13 6 -17 7 -4 9 -3 5 4 -3 5 0 13 6 15 9 4 10 6
1 6 -6 1 -14 -3 -18 -8z"/>
<path d="M991 324 c0 -11 3 -14 6 -6 3 7 2 16 -1 19 -3 4 -6 -2 -5 -13z"/>
<path d="M2457 235 c-4 -8 -3 -16 1 -19 4 -3 9 4 9 15 2 23 -3 25 -10 4z"/>
<path d="M2420 220 c-9 -6 -10 -10 -3 -10 6 0 15 5 18 10 8 12 4 12 -15 0z"/>
<path d="M1455 210 c-3 -5 -4 -10 0 -10 3 0 1 -9 -5 -20 -9 -16 -8 -19 6 -13
14 5 16 2 11 -18 l-6 -24 17 23 c14 18 20 20 31 10 11 -10 12 -10 7 0 -4 6 -3
12 3 12 5 0 12 -8 14 -17 4 -17 5 -17 6 0 0 10 5 16 11 12 5 -3 7 -13 4 -23
-4 -10 -3 -13 3 -6 4 6 16 10 26 8 9 -1 15 1 12 6 -3 5 -2 10 2 13 5 2 3 2 -4
1 -6 -2 -17 4 -24 12 -9 11 -15 12 -25 3 -10 -8 -14 -8 -14 0 0 6 -6 11 -14
11 -7 0 -19 7 -26 15 -14 17 -26 19 -35 5z m44 -24 c9 -11 7 -13 -11 -11 -33
4 -34 4 -18 15 19 12 16 12 29 -4z m72 -23 c13 -16 12 -17 -3 -4 -17 13 -22
21 -14 21 2 0 10 -8 17 -17z"/>
<path d="M1390 158 c0 -3 9 -6 20 -5 11 1 20 5 20 9 0 3 -9 6 -20 5 -11 -1
-20 -5 -20 -9z"/>
<path d="M1493 135 c0 -8 4 -12 9 -9 5 3 6 10 3 15 -9 13 -12 11 -12 -6z"/>
<path d="M2160 140 c-9 -6 -10 -10 -3 -10 6 0 15 5 18 10 8 12 4 12 -15 0z"/>
<path d="M2034 128 c10 -6 22 -6 26 -2 5 5 -3 10 -18 11 -22 1 -24 0 -8 -9z"/>
<path d="M1570 119 c0 -4 10 -6 21 -4 32 6 34 13 4 13 -14 0 -25 -4 -25 -9z"/>
<path d="M1633 105 c0 -8 4 -12 9 -9 5 3 6 10 3 15 -9 13 -12 11 -12 -6z"/>
</g>
</svg>
